<svg id="Layer_1" enable-background="new 0 0 512.036 512.036" height="512" viewBox="0 0 512.036 512.036" width="512" xmlns="http://www.w3.org/2000/svg"><g><path d="m92.746 41.817c94.267-42.374 232.276-42.374 326.543-.001 11.081 4.981 19.836 13.957 24.626 25.122 42.805 99.774 42.804 246.427-.002 346.2-4.789 11.162-13.542 20.137-24.621 25.117-94.268 42.375-232.281 42.375-326.549 0-11.079-4.98-19.832-13.954-24.621-25.117-42.805-99.774-42.806-246.428 0-346.202 4.79-11.164 13.544-20.139 24.624-25.119z" fill="#fff2a0"/><path d="m321.018 452.036c-3.71 28.139-31.396 50-65 50-33.604 0-61.29-21.861-65-50" fill="#fff2a0"/><g fill="#fffbdf"><circle cx="156.018" cy="236.036" r="40"/><circle cx="356.018" cy="236.036" r="40"/></g><g fill="#ffa96b"><path d="m453.104 62.996c-5.807-13.536-16.36-24.297-29.716-30.302-96.981-43.592-237.76-43.593-334.743.001-13.354 6.003-23.907 16.764-29.713 30.299-44.012 102.585-44.012 251.5.001 354.086 5.806 13.533 16.357 24.293 29.71 30.296 29.423 13.225 63.017 22.597 99.868 27.889 12.435 21.962 38.177 36.771 67.507 36.771s55.072-14.81 67.507-36.771c36.85-5.292 70.445-14.664 99.868-27.889 13.354-6.003 23.905-16.763 29.71-30.296 44.013-102.584 44.013-251.498.001-354.084zm-18.381 346.199c-3.825 8.915-10.761 15.996-19.531 19.938-25.011 11.243-53.339 19.548-84.347 24.756.026-.183.063-.363.087-.547.722-5.475-3.131-10.499-8.607-11.221-5.473-.72-10.499 3.131-11.221 8.607-3.105 23.549-26.787 41.307-55.086 41.307s-51.981-17.758-55.086-41.307c-.722-5.476-5.75-9.334-11.221-8.607-5.476.722-9.329 5.746-8.607 11.221.024.184.061.364.087.547-31.008-5.208-59.336-13.513-84.347-24.756-8.77-3.942-15.706-11.023-19.531-19.938-20.181-47.038-31.294-107.112-31.295-169.158 0-62.046 11.114-122.12 31.294-169.158 3.826-8.917 10.763-15.999 19.534-19.941 44.331-19.927 100.858-30.901 159.171-30.901s114.841 10.974 159.172 30.9c8.772 3.943 15.71 11.026 19.536 19.944 20.18 47.038 31.294 107.112 31.293 169.157-.001 62.046-11.114 122.12-31.295 169.157z"/><path d="m196.009 296.037c3.177 0 6.3-1.511 8.241-4.323 3.136-4.546 1.992-10.773-2.554-13.909-3.366-2.322-7.019-4.292-10.865-5.929 9.357-9.091 15.187-21.794 15.187-35.84 0-27.57-22.43-50-50-50s-50 22.43-50 50c0 15.756 7.333 29.824 18.757 38.996-1.525.863-3.005 1.787-4.435 2.773-4.546 3.136-5.69 9.363-2.554 13.909 3.136 4.547 9.365 5.688 13.91 2.554 15.895-10.963 42.75-10.963 58.645 0 1.733 1.196 3.71 1.769 5.668 1.769zm-39.991-90.001c16.542 0 30 13.458 30 30s-13.458 30-30 30-30-13.458-30-30 13.458-30 30-30z"/><path d="m406.018 236.036c0-27.57-22.43-50-50-50s-50 22.43-50 50c0 14.046 5.83 26.749 15.187 35.84-3.846 1.637-7.499 3.607-10.865 5.929-4.546 3.136-5.69 9.363-2.554 13.909 3.136 4.547 9.365 5.688 13.91 2.554 15.895-10.963 42.75-10.963 58.645 0 1.733 1.196 3.711 1.77 5.669 1.77 3.177 0 6.3-1.511 8.241-4.323 3.136-4.546 1.992-10.773-2.554-13.909-1.43-.986-2.91-1.91-4.435-2.773 11.423-9.173 18.756-23.241 18.756-38.997zm-50-30c16.542 0 30 13.458 30 30s-13.458 30-30 30-30-13.458-30-30 13.458-30 30-30z"/><path d="m114.968 160.497c9.6-19.259 40.96-29.347 68.482-22.036 5.34 1.424 10.814-1.759 12.233-7.096 1.418-5.338-1.759-10.814-7.096-12.232-37.309-9.917-77.507 4.335-91.518 32.442-2.464 4.942-.454 10.947 4.489 13.411 1.433.714 2.954 1.052 4.453 1.052 3.672 0 7.207-2.03 8.957-5.541z"/><path d="m325.45 119.133c-5.337 1.418-8.515 6.895-7.096 12.232s6.897 8.522 12.233 7.096c27.521-7.314 58.882 2.778 68.482 22.036 1.75 3.511 5.285 5.541 8.958 5.541 1.499 0 3.021-.338 4.453-1.052 4.943-2.464 6.953-8.469 4.489-13.411-14.012-28.107-54.211-42.358-91.519-32.442z"/><path d="m316.018 326.036c-5.523 0-10 4.478-10 10 0 11.028-8.972 20-20 20s-20-8.972-20-20c0-5.522-4.477-10-10-10s-10 4.478-10 10c0 11.028-8.972 20-20 20s-20-8.972-20-20c0-5.522-4.477-10-10-10s-10 4.478-10 10c0 22.056 17.944 40 40 40 11.938 0 22.665-5.264 30-13.585 7.335 8.321 18.062 13.585 30 13.585 22.056 0 40-17.944 40-40 0-5.523-4.477-10-10-10z"/></g><g fill="#fffbdf"><circle cx="116.018" cy="346.036" r="30"/><circle cx="396.018" cy="346.036" r="30"/></g></g></svg>